# xmcd
#
# Track frame offsets: 
#        150
#        6792
#        17090
#        29990
#        41932
#        54025
#        71212
#        88605
#        100377
#        111482
#        124180
#        135800
#        148337
#        159332
#        171890
#        187332
#        199342
#        213157
#        223945
#        241162
#
# Disc length: 3438 seconds
#
# Revision: 3
# Processed by: cddbd v1.4PL0 Copyright (c) Steve Scherf et al.
# Submitted via: ExactAudioCopy v0.95a3
#
DISCID=320d6c14
DTITLE=John Lee Hooker - The Best of John Lee Hooker
DYEAR=1900
DGENRE=Blues
TTITLE0=Talk That Talk (spoken intro)
TTITLE1=Dimples
TTITLE2=Hobo Blues
TTITLE3=Boogie Chillun
TTITLE4=Little Wheel
TTITLE5=Process
TTITLE6=Blues before Sunrise
TTITLE7=Let's Make It
TTITLE8=No Shoes
TTITLE9=Drug Store Woman
TTITLE10=Boom Boom
TTITLE11=I'm in the Mood
TTITLE12=Maudie
TTITLE13=Crawlin' Kingsnake
TTITLE14=Tupelo
TTITLE15=Whiskey and Wimmen
TTITLE16=I'm Goin' Upstairs
TTITLE17=Want-Ad Blues
TTITLE18=Five Long Years
TTITLE19=My First Wife Left Me
EXTD=
EXTT0=
EXTT1=
EXTT2=
EXTT3=
EXTT4=
EXTT5=
EXTT6=
EXTT7=
EXTT8=
EXTT9=
EXTT10=
EXTT11=
EXTT12=
EXTT13=
EXTT14=
EXTT15=
EXTT16=
EXTT17=
EXTT18=
EXTT19=
PLAYORDER=
